<svg width="193" height="277" viewBox="0 0 193 277" fill="none" xmlns="http://www.w3.org/2000/svg">
<path fill-rule="evenodd" clip-rule="evenodd" d="M93 184L5.72205e-06 184L1.65689e-06 230.5C-5.88239e-07 256.181 20.8188 277 46.5 277C72.1812 277 93 256.181 93 230.5L93 184ZM84.2264 192.774L84.2264 230.5C84.2264 251.336 67.3357 268.226 46.5 268.226C25.6643 268.226 8.77358 251.336 8.77359 230.5L8.77359 192.774L84.2264 192.774Z" fill="black"/>
<path fill-rule="evenodd" clip-rule="evenodd" d="M60 186L3.57628e-06 186L1.44429e-06 210.387C1.45125e-08 226.742 13.4315 240 30 240C46.5685 240 60 226.742 60 210.387L60 186ZM51.1765 194.71L51.1765 210.387C51.1765 221.932 41.6954 231.29 30 231.29C18.3046 231.29 8.82353 221.932 8.82353 210.387L8.82354 194.71L51.1765 194.71Z" fill="black"/>
<path fill-rule="evenodd" clip-rule="evenodd" d="M-8.4363e-06 193L96.5 193C149.795 193 193 149.795 193 96.5C193 43.2045 149.795 6.54777e-06 96.5 4.21815e-06C43.2045 1.88853e-06 -1.88853e-06 43.2045 -4.21815e-06 96.5L-8.4363e-06 193ZM8.77272 96.5C8.77273 48.0496 48.0496 8.77273 96.5 8.77273C144.95 8.77273 184.227 48.0496 184.227 96.5C184.227 144.95 144.95 184.227 96.5 184.227L8.77272 184.227L8.77272 96.5Z" fill="black"/>
<path fill-rule="evenodd" clip-rule="evenodd" d="M-6.46929e-06 193L73.5 193C114.093 193 147 159.869 147 119C147 78.1309 114.093 45 73.5 45C32.9071 45 -1.4482e-06 78.1309 -3.23464e-06 119L-6.46929e-06 193ZM8.75 119C8.75 82.9963 37.7396 53.8095 73.5 53.8095C109.26 53.8095 138.25 82.9963 138.25 119C138.25 155.004 109.26 184.19 73.5 184.19L8.74999 184.19L8.75 119Z" fill="black"/>
<path fill-rule="evenodd" clip-rule="evenodd" d="M-4.06516e-06 193L46.5 193C72.1812 193 93 172.181 93 146.5C93 120.819 72.1812 100 46.5 100C20.8188 100 -9.10017e-07 120.819 -2.03258e-06 146.5L-4.06516e-06 193ZM8.77358 146.5C8.77358 125.664 25.6643 108.774 46.5 108.774C67.3357 108.774 84.2264 125.664 84.2264 146.5C84.2264 167.336 67.3357 184.226 46.5 184.226L8.77358 184.226L8.77358 146.5Z" fill="black"/>
</svg>
